<?xml version="1.0" standalone="no"?>
<!DOCTYPE svg PUBLIC "-//W3C//DTD SVG 20010904//EN"
 "http://www.w3.org/TR/2001/REC-SVG-20010904/DTD/svg10.dtd">
<svg version="1.0" xmlns="http://www.w3.org/2000/svg"
 width="1024.000000pt" height="1536.000000pt" viewBox="0 0 1024.000000 1536.000000"
 preserveAspectRatio="xMidYMid meet">

<g transform="translate(0.000000,1536.000000) scale(0.100000,-0.100000)"
fill="#000000" stroke="none">
<path d="M4813 11676 c-238 -45 -464 -184 -600 -369 -20 -26 -196 -314 -391
-640 l-356 -592 -1 -59 c0 -56 2 -60 41 -95 55 -48 161 -101 202 -101 37 0 79
19 104 46 9 11 161 264 339 564 177 300 339 570 360 601 120 178 315 269 580
269 333 0 523 -97 661 -337 31 -54 160 -275 287 -491 127 -217 231 -398 231
-404 0 -5 -12 -7 -27 -4 -94 18 -259 36 -283 31 -16 -4 -43 -22 -60 -41 -53
-61 -36 -163 34 -198 17 -9 185 -52 374 -96 304 -72 347 -79 382 -70 77 21 89
52 174 430 36 157 70 308 76 335 24 98 -37 170 -134 162 -73 -6 -96 -37 -146
-197 -23 -72 -46 -130 -50 -128 -5 2 -122 199 -261 438 -138 239 -269 465
-290 503 -91 155 -222 274 -393 357 -172 83 -219 92 -521 96 -188 2 -280 -1
-332 -10z"/>
<path d="M5404 9660 c-147 -38 -312 -99 -462 -171 -370 -176 -595 -414 -684
-724 -20 -69 -23 -102 -22 -245 0 -149 3 -173 27 -253 41 -133 104 -249 183
-337 l33 -36 -15 -50 c-39 -127 -74 -404 -60 -476 9 -48 46 -78 98 -78 65 0
95 22 113 84 17 58 44 248 45 308 0 35 2 37 38 43 20 4 102 22 181 42 271 66
441 149 588 286 172 163 270 367 303 631 16 122 8 407 -14 531 -35 196 -118
424 -167 458 -32 23 -55 21 -185 -13z m-170 -586 c14 -15 26 -30 26 -33 0 -4
-25 -47 -56 -97 -160 -253 -349 -616 -466 -894 -36 -85 -68 -163 -72 -172 -8
-26 -25 -22 -38 8 -16 34 1 149 39 264 55 170 386 794 484 913 36 44 48 45 83
11z"/>
<path d="M3280 9510 c-14 -4 -164 -47 -335 -95 -170 -49 -320 -95 -333 -103
-33 -21 -52 -64 -52 -117 0 -37 6 -52 33 -81 44 -48 86 -53 227 -24 60 13 113
20 116 17 4 -3 -87 -167 -202 -364 -317 -544 -330 -569 -362 -657 -93 -255
-79 -575 36 -818 143 -305 417 -538 737 -625 l100 -28 695 -2 c682 -3 696 -3
728 17 57 35 72 73 72 178 0 100 -9 129 -55 172 l-27 25 -671 6 c-646 5 -675
6 -748 26 -212 59 -364 185 -455 378 -80 169 -95 357 -41 527 23 71 161 316
458 813 116 193 99 190 149 34 24 -74 50 -144 58 -157 21 -33 64 -52 114 -52
60 0 102 28 123 83 l17 45 -67 253 c-37 140 -80 305 -97 368 -16 63 -37 125
-45 138 -31 47 -104 65 -173 43z"/>
<path d="M6989 9420 c-42 -12 -153 -98 -171 -133 -10 -17 -18 -52 -18 -77 0
-42 25 -88 291 -540 389 -662 395 -673 419 -763 24 -87 29 -248 11 -327 -50
-219 -183 -391 -375 -485 -168 -83 -139 -80 -850 -80 -411 0 -630 3 -632 10
-2 6 36 42 83 80 51 42 91 83 99 102 48 114 -43 222 -161 192 -44 -11 -42 -10
-394 -332 -200 -184 -226 -227 -184 -314 20 -42 528 -511 575 -531 79 -34 178
37 178 127 0 50 -16 77 -101 168 l-81 88 653 6 c676 6 686 7 819 51 322 106
590 356 709 663 101 257 100 557 -1 806 -19 46 -150 284 -292 529 -443 764
-422 729 -469 751 -45 20 -67 22 -108 9z"/>
<path d="M6465 6261 c-91 -24 -181 -104 -209 -188 -70 -204 86 -408 298 -391
106 9 201 71 249 163 32 62 35 177 7 243 -25 59 -99 133 -156 157 -46 19 -146
28 -189 16z"/>
<path d="M8369 5156 c-83 -47 -87 -176 -7 -226 25 -16 44 -20 82 -17 42 4 55
10 84 42 32 35 34 41 30 92 -6 74 -45 114 -115 120 -30 2 -58 -2 -74 -11z"/>
<path d="M5810 4563 l0 -543 110 0 110 0 0 195 0 195 74 0 75 0 101 -195 102
-195 124 0 124 0 -25 38 c-13 20 -69 111 -123 202 l-99 165 47 27 c116 66 178
223 150 379 -21 114 -75 190 -168 236 l-57 28 -273 5 -272 5 0 -542z m485 333
c50 -21 75 -68 75 -141 0 -42 -6 -70 -20 -92 -32 -53 -70 -67 -202 -71 l-118
-4 0 161 0 161 115 0 c78 0 127 -5 150 -14z"/>
<path d="M1690 4561 l0 -541 110 0 110 0 0 174 0 173 143 5 c181 7 236 26 318
107 74 75 94 131 94 266 0 89 -4 107 -29 162 -33 72 -93 133 -164 166 -44 20
-64 22 -314 25 l-268 3 0 -540z m486 333 c107 -51 107 -246 -1 -307 -11 -6
-75 -14 -143 -17 l-122 -5 0 173 0 172 116 0 c86 0 125 -4 150 -16z"/>
<path d="M4400 4930 l0 -120 -70 0 -70 0 0 -90 0 -90 70 0 70 0 0 -218 c0
-253 9 -301 64 -350 19 -16 52 -36 73 -43 43 -14 158 -18 216 -6 l37 8 0 79 0
80 -65 0 c-57 0 -69 3 -90 25 -25 24 -25 25 -25 225 l0 200 90 0 90 0 0 90 0
90 -90 0 -90 0 0 120 0 120 -105 0 -105 0 0 -120z"/>
<path d="M3835 4821 c-61 -17 -86 -32 -130 -75 l-45 -45 0 54 0 55 -100 0
-100 0 0 -395 0 -395 99 0 99 0 4 248 c3 242 3 248 28 291 14 25 40 52 60 63
46 24 116 23 158 -2 58 -35 62 -60 62 -345 l0 -255 106 0 106 0 -4 308 c-3
288 -4 310 -24 352 -26 55 -76 103 -127 125 -46 19 -150 28 -192 16z"/>
<path d="M5123 4805 c-106 -33 -196 -115 -234 -214 -32 -80 -38 -248 -13 -327
24 -76 68 -140 129 -186 149 -114 402 -101 542 26 83 74 131 214 120 344 -19
231 -178 373 -415 371 -48 0 -106 -6 -129 -14z m235 -194 c20 -10 45 -27 54
-38 54 -60 68 -195 28 -277 -74 -155 -324 -133 -369 31 -32 115 6 236 88 280
57 30 145 31 199 4z"/>
<path d="M6947 4810 c-88 -22 -172 -80 -217 -148 -52 -79 -73 -168 -68 -283 4
-89 9 -107 42 -174 67 -135 190 -205 359 -205 98 0 165 18 231 61 42 28 106
103 95 113 -2 2 -37 22 -77 45 l-73 41 -26 -30 c-96 -115 -303 -74 -342 67 -6
21 -11 41 -11 46 0 4 124 7 275 7 l275 0 0 73 c0 235 -131 384 -344 393 -45 2
-98 -1 -119 -6z m183 -175 c14 -7 33 -21 42 -32 18 -19 48 -84 48 -103 0 -6
-61 -10 -175 -10 -194 0 -191 -1 -159 65 42 90 153 126 244 80z"/>
<path d="M7759 4802 c-112 -37 -186 -108 -231 -221 -32 -80 -32 -260 1 -343
61 -155 190 -238 372 -238 140 0 248 61 303 173 14 28 25 52 23 53 -1 2 -39
16 -84 33 l-82 30 -17 -27 c-26 -44 -63 -65 -121 -70 -99 -8 -179 42 -203 126
-23 84 -6 207 37 254 69 79 239 75 280 -6 8 -17 17 -33 19 -35 2 -2 42 7 89
20 83 23 86 25 80 49 -20 80 -80 151 -161 191 -67 32 -222 38 -305 11z"/>
<path d="M2590 4508 c0 -283 2 -306 21 -348 25 -55 71 -105 124 -133 32 -18
57 -22 130 -22 105 0 152 19 204 82 l31 38 0 -53 0 -52 100 0 100 0 0 395 0
395 -100 0 -100 0 0 -227 c0 -126 -5 -246 -10 -267 -26 -114 -152 -173 -241
-113 -53 36 -58 63 -58 350 l-1 257 -100 0 -100 0 0 -302z"/>
<path d="M8335 4415 l0 -395 105 0 105 0 0 395 0 395 -105 0 -106 0 1 -395z"/>
</g>
</svg>
